<mxfile host="app.diagrams.net" modified="2024-03-15T01:36:21.079Z" agent="Mozilla/5.0 (Windows NT 10.0; Win64; x64) AppleWebKit/537.36 (KHTML, like Gecko) Chrome/122.0.0.0 Safari/537.36" etag="UEWLzUb-H1KtxDhoZUSZ" version="24.0.2" type="device">
  <diagram name="Página-1" id="b0JLvSZYDRT4Mgk-a0De">
    <mxGraphModel dx="472" dy="770" grid="1" gridSize="10" guides="1" tooltips="1" connect="1" arrows="1" fold="1" page="0" pageScale="1" pageWidth="827" pageHeight="1169" math="0" shadow="0">
      <root>
        <mxCell id="0" />
        <mxCell id="1" parent="0" />
        <mxCell id="a8AoU_n1B9u0T8RcCwbD-12" value="" style="rounded=0;orthogonalLoop=1;jettySize=auto;html=1;startArrow=none;startFill=0;endArrow=none;endFill=0;entryX=0;entryY=0.5;entryDx=0;entryDy=0;" edge="1" parent="1" source="a8AoU_n1B9u0T8RcCwbD-1" target="a8AoU_n1B9u0T8RcCwbD-10">
          <mxGeometry relative="1" as="geometry" />
        </mxCell>
        <mxCell id="a8AoU_n1B9u0T8RcCwbD-13" style="rounded=0;orthogonalLoop=1;jettySize=auto;html=1;startArrow=none;startFill=0;endArrow=none;endFill=0;entryX=0;entryY=0.5;entryDx=0;entryDy=0;" edge="1" parent="1" source="a8AoU_n1B9u0T8RcCwbD-1" target="a8AoU_n1B9u0T8RcCwbD-9">
          <mxGeometry relative="1" as="geometry" />
        </mxCell>
        <mxCell id="a8AoU_n1B9u0T8RcCwbD-1" value="Aluno" style="shape=umlActor;verticalLabelPosition=bottom;verticalAlign=top;html=1;outlineConnect=0;" vertex="1" parent="1">
          <mxGeometry x="110" y="250" width="30" height="60" as="geometry" />
        </mxCell>
        <mxCell id="a8AoU_n1B9u0T8RcCwbD-15" style="rounded=0;orthogonalLoop=1;jettySize=auto;html=1;endArrow=none;endFill=0;entryX=1;entryY=0.5;entryDx=0;entryDy=0;" edge="1" parent="1" source="a8AoU_n1B9u0T8RcCwbD-2" target="a8AoU_n1B9u0T8RcCwbD-9">
          <mxGeometry relative="1" as="geometry" />
        </mxCell>
        <mxCell id="a8AoU_n1B9u0T8RcCwbD-2" value="Nutricionista" style="shape=umlActor;verticalLabelPosition=bottom;verticalAlign=top;html=1;outlineConnect=0;" vertex="1" parent="1">
          <mxGeometry x="450" y="250" width="30" height="60" as="geometry" />
        </mxCell>
        <mxCell id="a8AoU_n1B9u0T8RcCwbD-3" value="Personal Trainer" style="shape=umlActor;verticalLabelPosition=bottom;verticalAlign=top;html=1;outlineConnect=0;" vertex="1" parent="1">
          <mxGeometry x="110" y="400" width="30" height="60" as="geometry" />
        </mxCell>
        <mxCell id="a8AoU_n1B9u0T8RcCwbD-9" value="Solicitar dieta" style="ellipse;whiteSpace=wrap;html=1;" vertex="1" parent="1">
          <mxGeometry x="230" y="300" width="120" height="50" as="geometry" />
        </mxCell>
        <mxCell id="a8AoU_n1B9u0T8RcCwbD-10" value="Consular dieta" style="ellipse;whiteSpace=wrap;html=1;" vertex="1" parent="1">
          <mxGeometry x="230" y="180" width="120" height="50" as="geometry" />
        </mxCell>
        <mxCell id="a8AoU_n1B9u0T8RcCwbD-11" value="Selecionar produtos da dieta" style="ellipse;whiteSpace=wrap;html=1;" vertex="1" parent="1">
          <mxGeometry x="230" y="240" width="120" height="50" as="geometry" />
        </mxCell>
        <mxCell id="a8AoU_n1B9u0T8RcCwbD-14" style="rounded=0;orthogonalLoop=1;jettySize=auto;html=1;entryX=0;entryY=0.5;entryDx=0;entryDy=0;startArrow=none;startFill=0;endArrow=none;endFill=0;" edge="1" parent="1" source="a8AoU_n1B9u0T8RcCwbD-1" target="a8AoU_n1B9u0T8RcCwbD-11">
          <mxGeometry relative="1" as="geometry" />
        </mxCell>
        <mxCell id="a8AoU_n1B9u0T8RcCwbD-16" value="Solicitar plano de exercícios" style="ellipse;whiteSpace=wrap;html=1;" vertex="1" parent="1">
          <mxGeometry x="240" y="370" width="120" height="50" as="geometry" />
        </mxCell>
      </root>
    </mxGraphModel>
  </diagram>
</mxfile>
